<?xml version="1.0" encoding="UTF-8"?>
<!DOCTYPE svg PUBLIC "-//W3C//DTD SVG 1.1//EN" "http://www.w3.org/Graphics/SVG/1.1/DTD/svg11.dtd">
<!-- Creator: CorelDRAW -->
<svg xmlns="http://www.w3.org/2000/svg" xml:space="preserve" width="6.82666in" height="6.82666in" style="shape-rendering:geometricPrecision; text-rendering:geometricPrecision; image-rendering:optimizeQuality; fill-rule:evenodd; clip-rule:evenodd"
viewBox="0 0 6.82666 6.82666"
 xmlns:xlink="http://www.w3.org/1999/xlink"
 version="1.1">
 <defs>
  <style type="text/css">
   <![CDATA[
    .fil8 {fill:none}
    .fil3 {fill:#7A5C53}
    .fil2 {fill:#8E6F64}
    .fil7 {fill:#C4A89A}
    .fil6 {fill:#CEB7AA}
    .fil1 {fill:#DCC9BD}
    .fil5 {fill:#E27F26}
    .fil0 {fill:#E8D7CB}
    .fil4 {fill:#EBB41F}
   ]]>
  </style>
 </defs>
 <g id="Layer_x0020_1">
  <metadata id="CorelCorpID_0Corel-Layer"/>
  <g id="_560409496">
   <g id="Guides">
   </g>
   <g id="Layer_2">
   </g>
   <g id="Layer_3">
   </g>
   <g id="Layer_4">
   </g>
   <g id="Layer_5">
   </g>
   <g id="Layer_6">
   </g>
   <g id="Layer_7">
   </g>
   <g id="Layer_8">
   </g>
   <g id="Layer_9">
    <g>
     <g>
      <g>
       <g>
        <rect id="_551698928" class="fil0" x="2.08526" y="1.57542" width="2.2983" height="3.13646"/>
       </g>
      </g>
      <g>
       <g>
        <rect id="_551699456" class="fil1" x="3.21226" y="1.57542" width="1.1713" height="3.13646"/>
       </g>
      </g>
      <g>
       <g>
        <g>
         <g>
          <g>
           <path id="_551698712" class="fil2" d="M3.99396 1.96375l-0.995898 0c-0.0144331,0 -0.0261339,-0.0117008 -0.0261339,-0.0261339l0 0c0,-0.0144331 0.0117008,-0.0261339 0.0261339,-0.0261339l0.995898 3.93701e-006c0.0144331,0 0.0261339,0.0117008 0.0261339,0.0261339l0 0c0,0.0144331 -0.0117008,0.0261299 -0.0261339,0.0261299z"/>
          </g>
         </g>
        </g>
       </g>
       <g>
        <g>
         <g>
          <g>
           <path id="_551698856" class="fil3" d="M3.99396 1.96375l-0.781697 0 0 -0.0522677 0.781697 3.93701e-006c0.0144331,0 0.0261339,0.0117008 0.0261339,0.0261339l0 0c0,0.0144331 -0.0117008,0.0261299 -0.0261339,0.0261299z"/>
          </g>
         </g>
        </g>
       </g>
       <g>
        <g>
         <g>
          <g>
           <path id="_551697848" class="fil2" d="M3.99396 2.16312l-0.995898 0c-0.0144331,0 -0.0261339,-0.0117008 -0.0261339,-0.0261339l0 0c0,-0.0144331 0.0117008,-0.0261339 0.0261339,-0.0261339l0.995898 3.93701e-006c0.0144331,0 0.0261339,0.0117008 0.0261339,0.0261339l0 0c0,0.0144331 -0.0117008,0.0261299 -0.0261339,0.0261299z"/>
          </g>
         </g>
        </g>
       </g>
       <g>
        <g>
         <g>
          <g>
           <path id="_551697416" class="fil3" d="M3.99396 2.16312l-0.781697 0 0 -0.0522677 0.781697 3.93701e-006c0.0144331,0 0.0261339,0.0117008 0.0261339,0.0261339l0 0c0,0.0144331 -0.0117008,0.0261299 -0.0261339,0.0261299z"/>
          </g>
         </g>
        </g>
       </g>
      </g>
      <g>
       <g>
        <g>
         <polygon id="_551697056" class="fil4" points="2.82993,2.04579 2.79163,2.09059 2.79617,2.14935 2.73876,2.16299 2.70793,2.21325 2.65346,2.19056 2.599,2.21325 2.56817,2.16299 2.51076,2.14935 2.5153,2.09059 2.477,2.04579 2.5153,2.00099 2.51076,1.94222 2.56817,1.92859 2.599,1.87832 2.65346,1.90102 2.70793,1.87832 2.73876,1.92859 2.79617,1.94222 2.79163,2.00099 "/>
        </g>
       </g>
       <g>
        <g>
         <polygon id="_551696120" class="fil5" points="2.65346,1.98129 2.67446,2.02375 2.72146,2.03056 2.68746,2.06362 2.6955,2.11029 2.65346,2.08825 2.61143,2.11029 2.61946,2.06362 2.58546,2.03056 2.63246,2.02375 "/>
        </g>
       </g>
       <g>
        <g>
         <g>
          <path id="_551696360" class="fil5" d="M2.65346 2.16729c-0.067,0 -0.1215,-0.0545 -0.1215,-0.1215 0,-0.067 0.0545,-0.1215 0.1215,-0.1215 0.067,0 0.1215,0.0545 0.1215,0.1215 0,0.067 -0.0545,0.1215 -0.1215,0.1215zm0 -0.229669c-0.0596339,0 -0.108165,0.0485315 -0.108165,0.108165 0,0.0596339 0.0485315,0.108165 0.108165,0.108165 0.0596339,0 0.108165,-0.0485315 0.108165,-0.108165 0,-0.0596299 -0.0485315,-0.108165 -0.108165,-0.108165z"/>
         </g>
        </g>
       </g>
      </g>
     </g>
     <g>
      <g>
       <g>
        <rect id="_551695640" class="fil0" x="0.934736" y="3.06412" width="1.76526" height="0.966531"/>
       </g>
      </g>
      <g>
       <g>
        <rect id="_551694680" class="fil1" x="1.80033" y="3.06412" width="0.899665" height="0.966531"/>
       </g>
      </g>
      <g>
       <g>
        <g>
         <g>
          <g>
           <path id="_551694896" class="fil2" d="M2.48646 3.40625l-0.877331 0c-0.0127008,0 -0.0230315,-0.0102992 -0.0230315,-0.0230315l0 0c0,-0.0127008 0.0102992,-0.0230315 0.0230315,-0.0230315l0.877331 -3.93701e-006c0.0127008,0 0.0230315,0.0102992 0.0230315,0.0230315l0 0c-3.14961e-005,0.0127008 -0.0103307,0.0230354 -0.0230315,0.0230354z"/>
          </g>
         </g>
        </g>
       </g>
       <g>
        <g>
         <g>
          <g>
           <path id="_551693672" class="fil3" d="M2.48646 3.40625l-0.688634 0 0 -0.0460315 0.688634 0c0.0127008,0 0.0230315,0.0102992 0.0230315,0.0230315l0 0c-3.14961e-005,0.0126654 -0.0103307,0.023 -0.0230315,0.023z"/>
          </g>
         </g>
        </g>
       </g>
       <g>
        <g>
         <g>
          <g>
           <path id="_551694200" class="fil2" d="M2.48646 3.58185l-0.877331 0c-0.0127008,0 -0.0230315,-0.0102992 -0.0230315,-0.0230315l0 0c0,-0.0127008 0.0102992,-0.0230315 0.0230315,-0.0230315l0.877331 0c0.0127008,0 0.0230315,0.0102992 0.0230315,0.0230315l0 0c-3.14961e-005,0.0127323 -0.0103307,0.0230315 -0.0230315,0.0230315z"/>
          </g>
         </g>
        </g>
       </g>
       <g>
        <g>
         <g>
          <g>
           <path id="_551693312" class="fil3" d="M2.48646 3.58185l-0.688634 0 0 -0.0460315 0.688634 0c0.0127008,0 0.0230315,0.0102992 0.0230315,0.0230315l0 0c-3.14961e-005,0.0127008 -0.0103307,0.023 -0.0230315,0.023z"/>
          </g>
         </g>
        </g>
       </g>
      </g>
      <g>
       <g>
        <g>
         <polygon id="_551692712" class="fil4" points="1.46103,3.47852 1.4273,3.51798 1.4313,3.56975 1.38073,3.58175 1.35357,3.62602 1.3056,3.60605 1.2576,3.62602 1.23043,3.58175 1.1799,3.56975 1.18387,3.51798 1.15013,3.47852 1.18387,3.43905 1.1799,3.38725 1.23043,3.37529 1.2576,3.33098 1.3056,3.35098 1.35357,3.33098 1.38073,3.37529 1.4313,3.38725 1.4273,3.43905 "/>
        </g>
       </g>
       <g>
        <g>
         <polygon id="_551692088" class="fil5" points="1.3056,3.42169 1.3241,3.45909 1.3655,3.46509 1.33553,3.49422 1.3426,3.53532 1.3056,3.51592 1.26857,3.53532 1.27563,3.49422 1.24567,3.46509 1.28707,3.45909 "/>
        </g>
       </g>
       <g>
        <g>
         <g>
          <path id="_551691944" class="fil5" d="M1.3056 3.58555c-0.059,0 -0.107031,-0.048 -0.107031,-0.107031 0,-0.0590315 0.048,-0.107031 0.107031,-0.107031 0.0590315,0 0.107031,0.048 0.107031,0.107031 0,0.0590315 -0.0480315,0.107031 -0.107031,0.107031zm0 -0.202331c-0.0525315,0 -0.0952992,0.0427323 -0.0952992,0.0952992 0,0.0525669 0.0427323,0.0952992 0.0952992,0.0952992 0.0525315,0 0.0952992,-0.0427323 0.0952992,-0.0952992 0,-0.0525669 -0.0427638,-0.0952992 -0.0952992,-0.0952992z"/>
         </g>
        </g>
       </g>
      </g>
     </g>
     <g>
      <g>
       <g>
        <g>
         <rect id="_551691224" class="fil0" x="3.82476" y="4.02302" width="2.06716" height="1.22823"/>
        </g>
       </g>
       <g>
        <g>
         <rect id="_551690576" class="fil1" x="4.85833" y="4.02302" width="1.0336" height="1.22823"/>
        </g>
       </g>
       <g>
        <g>
         <polygon id="_551690264" class="fil6" points="5.89193,4.02302 4.85833,4.64668 3.82476,4.02302 "/>
        </g>
       </g>
       <g>
        <g>
         <polygon id="_551689736" class="fil7" points="5.89193,4.02302 4.85833,4.64668 4.85833,4.02302 "/>
        </g>
       </g>
      </g>
      <g>
       <g>
        <g>
         <g>
          <g>
           <g>
            <path id="_551689328" class="fil2" d="M5.54696 4.90271l-0.877331 0c-0.0127008,0 -0.0230315,-0.0102992 -0.0230315,-0.0230315l0 0c0,-0.0127008 0.0102992,-0.0230315 0.0230315,-0.0230315l0.877331 -3.93701e-006c0.0127008,0 0.0230315,0.0102992 0.0230315,0.0230315l0 0c3.93701e-006,0.0127362 -0.0103307,0.0230354 -0.0230315,0.0230354z"/>
           </g>
          </g>
         </g>
        </g>
        <g>
         <g>
          <g>
           <g>
            <path id="_551689664" class="fil3" d="M5.54696 4.90271l-0.68863 0 0 -0.0460315 0.68863 0c0.0127008,0 0.0230315,0.0102992 0.0230315,0.0230315l0 0c3.93701e-006,0.0127008 -0.0103307,0.023 -0.0230315,0.023z"/>
           </g>
          </g>
         </g>
        </g>
        <g>
         <g>
          <g>
           <g>
            <path id="_551688752" class="fil2" d="M5.54696 5.07835l-0.877331 0c-0.0127008,0 -0.0230315,-0.0102992 -0.0230315,-0.0230315l0 0c0,-0.0127008 0.0102992,-0.0230315 0.0230315,-0.0230315l0.877331 -3.93701e-006c0.0127008,0 0.0230315,0.0102992 0.0230315,0.0230315l0 0c3.93701e-006,0.0127362 -0.0103307,0.0230354 -0.0230315,0.0230354z"/>
           </g>
          </g>
         </g>
        </g>
        <g>
         <g>
          <g>
           <g>
            <path id="_551687888" class="fil3" d="M5.54696 5.07835l-0.68863 0 0 -0.0460315 0.68863 0c0.0127008,0 0.0230315,0.0102992 0.0230315,0.0230315l0 0c3.93701e-006,0.0127008 -0.0103307,0.023 -0.0230315,0.023z"/>
           </g>
          </g>
         </g>
        </g>
       </g>
       <g>
        <g>
         <g>
          <polygon id="_551687720" class="fil4" points="4.52156,4.97498 4.48779,5.01445 4.49179,5.06625 4.44122,5.07821 4.41406,5.12251 4.36609,5.10251 4.31813,5.12251 4.29093,5.07821 4.24039,5.06625 4.24436,5.01445 4.21063,4.97498 4.24436,4.93552 4.24039,4.88375 4.29093,4.87175 4.31813,4.82748 4.36609,4.84745 4.41406,4.82748 4.44122,4.87175 4.49179,4.88375 4.48779,4.93552 "/>
         </g>
        </g>
        <g>
         <g>
          <polygon id="_551687384" class="fil5" points="4.36609,4.91818 4.38459,4.95558 4.42599,4.96158 4.39603,4.99068 4.40313,5.03178 4.36609,5.01238 4.32906,5.03178 4.33613,4.99068 4.30619,4.96158 4.34756,4.95558 "/>
         </g>
        </g>
        <g>
         <g>
          <g>
           <path id="_551687144" class="fil5" d="M4.36609 5.08201c-0.059,0 -0.107031,-0.048 -0.107031,-0.107031 0,-0.059 0.048,-0.107031 0.107031,-0.107031 0.0590315,0 0.107031,0.048 0.107031,0.107031 0,0.0590315 -0.0480315,0.107031 -0.107031,0.107031zm0 -0.202299c-0.0525315,0 -0.0952992,0.0427323 -0.0952992,0.0952992 0,0.0525315 0.0427323,0.0952992 0.0952992,0.0952992 0.0525315,0 0.0952992,-0.0427323 0.0952992,-0.0952992 -3.54331e-005,-0.052563 -0.0427677,-0.0952992 -0.0952992,-0.0952992z"/>
          </g>
         </g>
        </g>
       </g>
      </g>
     </g>
    </g>
   </g>
   <g id="Layer_10">
   </g>
   <g id="Layer_11">
   </g>
   <g id="Layer_12">
   </g>
   <g id="Layer_13">
   </g>
   <g id="Layer_14">
   </g>
   <g id="Layer_15">
   </g>
   <g id="Layer_16">
   </g>
   <g id="Layer_17">
   </g>
   <g id="Layer_18">
   </g>
   <g id="Layer_19">
   </g>
   <g id="Layer_20">
   </g>
   <g id="Layer_21">
   </g>
   <g id="Layer_22">
   </g>
   <g id="Layer_23">
   </g>
   <g id="Layer_24">
   </g>
   <g id="Layer_25">
   </g>
   <g id="Layer_26">
   </g>
  </g>
 </g>
 <rect class="fil8" width="6.82666" height="6.82666"/>
</svg>
