<svg xmlns="http://www.w3.org/2000/svg" viewBox="0 0 48 48"><defs><style>.cls-1{fill:#374f68;}.cls-2{fill:#425b72;}.cls-3{fill:#edebf2;}.cls-4{fill:#6fabe6;}.cls-5{fill:#82bcf4;}.cls-6{fill:#ffde76;}.cls-7{fill:#f26674;}</style></defs><title>Strategy marketing growth</title><g id="Strategy_marketing_growth" data-name="Strategy marketing growth"><path class="cls-1" d="M25,43v2H1V43a2,2,0,0,1,2-2H23A2,2,0,0,1,25,43Z"/><path class="cls-2" d="M25,43H5a2,2,0,0,1-2-2c0-.1-.89,0,20,0A2,2,0,0,1,25,43Z"/><path class="cls-1" d="M23,41H3l3-5H20Z"/><path class="cls-2" d="M21.8,39H9.7A2,2,0,0,1,8,36c.06-.1-1.14,0,12,0Z"/><path class="cls-1" d="M18,20v2c2.82,3.39,5,5.28,5,9l-3,2v3H6V19A10,10,0,0,1,16,9h3l8,7-2,5C19,19.8,20.67,20,18,20Z"/><path class="cls-2" d="M27,16l-2,5c-6-1.2-4.33-1-7-1v2c2.82,3.39,5,5.28,5,9l-3,2v1H11a3,3,0,0,1-3-3V19A10,10,0,0,1,18,9h1Z"/><path class="cls-1" d="M20,5,19,9H16A10,10,0,0,0,6,19V33L2,30V17C2,9.92,7.29,3,17,3Z"/><path class="cls-2" d="M20,5,19,9H16A10,10,0,0,0,6,19V30.5L4,29V17A14,14,0,0,1,17.05,3Z"/><path class="cls-3" d="M17,14a1,1,0,0,1-.71-1.71,1,1,0,0,1,1.69.52A1,1,0,0,1,17,14Z"/><rect class="cls-4" x="29" y="35" width="6" height="10"/><path class="cls-5" d="M35,35c0,8.55-.1,8,0,8a4,4,0,0,1-4-4V35Z"/><rect class="cls-4" x="35" y="31" width="6" height="14"/><rect class="cls-4" x="41" y="27" width="6" height="18"/><path class="cls-6" d="M13,26a1,1,0,1,1,1-1,1,1,0,0,0,1,1c1.66,0,1.21-3-1-3.82a1,1,0,1,0-2,0A3,3,0,0,0,13,28a1,1,0,1,1-1,1,1,1,0,0,0-1-1c-1.66,0-1.21,3,1,3.82a1,1,0,1,0,2,0A3,3,0,0,0,13,26Z"/><path class="cls-7" d="M37.23,16.32a1,1,0,0,0-.34,2l1.56.28-8,5.61a1,1,0,0,0,1.14,1.64l8-5.62-.28,1.57a1,1,0,0,0,2,.34C42.31,16.34,43.09,17.35,37.23,16.32Z"/><path class="cls-5" d="M41,31c0,12.64-.1,12,0,12a4,4,0,0,1-4-4V31Z"/><path class="cls-5" d="M47,27c0,16.82-.1,16,0,16a4,4,0,0,1-4-4V27Z"/></g></svg>