<?xml version="1.0" encoding="utf-8"?>
<!-- Generator: Adobe Illustrator 24.0.0, SVG Export Plug-In . SVG Version: 6.00 Build 0)  -->
<svg version="1.1" id="Layer_1" xmlns="http://www.w3.org/2000/svg" xmlns:xlink="http://www.w3.org/1999/xlink" x="0px" y="0px"
	 viewBox="0 0 256 256" enable-background="new 0 0 256 256" xml:space="preserve">
<g>
	<g>
		<path fill="#CECECE" d="M32.035,219.159c-7.535,0-13.665-6.13-13.665-13.665V81.718c0-7.535,6.13-13.665,13.665-13.665h191.931
			c7.535,0,13.665,6.13,13.665,13.665v123.776c0,7.535-6.13,13.665-13.665,13.665H32.035z"/>
		<g>
			<path fill="#E2E2E2" d="M223.965,68.053h-14.667c7.534,0,13.665,6.13,13.665,13.665v123.776c0,7.534-6.13,13.665-13.665,13.665
				h14.667c7.535,0,13.665-6.13,13.665-13.665V81.718C237.63,74.184,231.5,68.053,223.965,68.053z"/>
		</g>
		<g>
			<path fill="#AFAFAF" d="M32.035,68.053h14.667c-7.534,0-13.665,6.13-13.665,13.665v123.776c0,7.534,6.13,13.665,13.665,13.665
				H32.035c-7.535,0-13.665-6.13-13.665-13.665V81.718C18.37,74.184,24.5,68.053,32.035,68.053z"/>
		</g>
		<path fill="#63BCE7" d="M229.221,81.742V205.47c0,2.916-2.364,5.28-5.28,5.28H32.059c-2.916,0-5.28-2.364-5.28-5.28V81.742
			c0-2.916,2.364-5.28,5.28-5.28h191.882C226.857,76.462,229.221,78.826,229.221,81.742z"/>
		<g>
			<path fill="#63E2E7" d="M223.941,76.462h-14.667c2.916,0,5.28,2.364,5.28,5.28V205.47c0,2.916-2.364,5.28-5.28,5.28h14.667
				c2.916,0,5.28-2.364,5.28-5.28V81.742C229.221,78.826,226.857,76.462,223.941,76.462z"/>
		</g>
		<g>
			<path fill="#6377E7" d="M32.059,76.462h14.667c-2.916,0-5.28,2.364-5.28,5.28V205.47c0,2.916,2.364,5.28,5.28,5.28H32.059
				c-2.916,0-5.28-2.364-5.28-5.28V81.742C26.779,78.826,29.143,76.462,32.059,76.462z"/>
		</g>
		<path fill="#CECECE" d="M128,219.159H8.667l3.053,7.024c2.751,6.329,8.995,10.423,15.896,10.423H128h100.385
			c6.901,0,13.145-4.094,15.896-10.423l3.053-7.024H128z"/>
		<g>
			<path fill="#E2E2E2" d="M232.667,219.159l-3.053,7.024c-2.751,6.329-8.995,10.423-15.896,10.423h14.667
				c6.901,0,13.145-4.094,15.896-10.423l3.053-7.024H232.667z"/>
		</g>
		<g>
			<path fill="#AFAFAF" d="M23.333,219.159l3.053,7.024c2.751,6.329,8.995,10.423,15.896,10.423H27.615
				c-6.901,0-13.145-4.094-15.896-10.423l-3.053-7.024H23.333z"/>
		</g>
		<path fill="#707070" d="M82.442,219.159l4.22,5.388c1.649,2.106,4.175,3.336,6.85,3.336h68.975c2.675,0,5.201-1.23,6.85-3.336
			l4.221-5.388H82.442z"/>
		<g>
			<g>
				<rect x="40.879" y="100.321" fill="#F46275" width="109.599" height="88.455"/>
				<path fill="#F8AF23" d="M150.478,188.776V167.42c-11.265-10.501-30.588-17.432-52.546-17.432
					c-25.255,0-47.025,9.167-57.054,22.392v16.396H150.478z"/>
				<path fill="#63BCE7" d="M72.1,154.941c0,4.214-3.416,7.63-7.63,7.63s-7.63-3.416-7.63-7.63s3.416-17.536,7.63-17.536
					S72.1,150.727,72.1,154.941z"/>
				<path fill="#63BCE7" d="M142.897,141.783c0,5.015-4.066,9.081-9.081,9.081s-9.081-4.066-9.081-9.081
					c0-5.015,4.066-20.87,9.081-20.87S142.897,136.768,142.897,141.783z"/>
			</g>
			<circle fill="#F8AF23" cx="95.679" cy="125.789" r="9.852"/>
		</g>
	</g>
	<circle fill="#F8AF23" cx="128" cy="55.682" r="47.261"/>
	<g>
		<path fill="#F87023" d="M95.405,55.682c0-23.607,17.309-43.168,39.928-46.692c-2.39-0.372-4.839-0.569-7.333-0.569
			c-26.102,0-47.261,21.16-47.261,47.261c0,26.102,21.16,47.261,47.261,47.261c2.495,0,4.943-0.197,7.333-0.569
			C112.715,98.85,95.405,79.289,95.405,55.682z"/>
	</g>
	<g>
		<path fill="#3F3679" d="M245.656,226.781l3.053-7.024c0.201-0.463,0.155-0.998-0.122-1.42c-0.276-0.422-0.748-0.677-1.254-0.677
			h-14.351c3.722-2.766,6.148-7.182,6.148-12.165V81.718c0-8.362-6.803-15.165-15.164-15.165h-48.441
			c0.8-3.498,1.237-7.134,1.237-10.871c0-26.887-21.874-48.761-48.762-48.761S79.238,28.795,79.238,55.682
			c0,3.737,0.437,7.373,1.237,10.871H32.034c-8.361,0-15.164,6.803-15.164,15.165v123.776c0,4.983,2.427,9.399,6.148,12.165H8.667
			c-0.506,0-0.978,0.255-1.254,0.677c-0.277,0.423-0.323,0.957-0.122,1.42l3.053,7.024c1.517,3.491,4.013,6.351,7.081,8.325H9.32
			c-0.828,0-1.5,0.671-1.5,1.5s0.672,1.5,1.5,1.5h18.295h200.77h18.295c0.828,0,1.5-0.671,1.5-1.5s-0.672-1.5-1.5-1.5h-8.104
			C241.643,233.132,244.139,230.272,245.656,226.781z M105.305,98.821H40.879c-0.828,0-1.5,0.671-1.5,1.5v88.455
			c0,0.829,0.672,1.5,1.5,1.5h109.6c0.828,0,1.5-0.671,1.5-1.5v-88.455c0-0.767-0.577-1.391-1.319-1.482
			c8.854-4.668,16.1-11.978,20.692-20.877h52.59c2.084,0,3.779,1.696,3.779,3.78V205.47c0,2.084-1.695,3.78-3.779,3.78H32.059
			c-2.084,0-3.779-1.696-3.779-3.78V81.742c0-2.084,1.695-3.78,3.779-3.78h52.59C89.235,86.85,96.467,94.152,105.305,98.821z
			 M143.793,101.804c0.056,0.006,0.112,0.017,0.17,0.017h5.016v62.32c-3.923-3.178-8.537-5.932-13.662-8.209v-3.687
			c5.124-0.732,9.081-5.138,9.081-10.462c0-2.934-1.182-8.446-2.748-12.822c-2.268-6.336-4.903-9.549-7.833-9.549
			s-5.565,3.213-7.834,9.549c-1.566,4.375-2.747,9.888-2.747,12.822c0,5.324,3.957,9.73,9.081,10.462v2.437
			c-10.136-3.987-22.001-6.195-34.384-6.195c-8.584,0-16.894,1.041-24.73,3.073c-1.006-5.724-3.926-15.656-8.732-15.656
			c-6.064,0-9.13,15.821-9.13,19.036c0,1.147,0.222,2.24,0.609,3.252c-5.367,2.881-9.978,6.33-13.57,10.137v-66.509h69.878
			c4.943,1.691,10.234,2.623,15.743,2.623C133.527,104.443,138.836,103.506,143.793,101.804z M42.379,172.912
			c3.587-4.59,8.777-8.759,15.083-12.129c1.371,1.642,3.309,2.788,5.508,3.153v9.818h-3.117c-0.828,0-1.5,0.671-1.5,1.5
			s0.672,1.5,1.5,1.5h9.234c0.828,0,1.5-0.671,1.5-1.5s-0.672-1.5-1.5-1.5H65.97v-9.818c4.321-0.719,7.63-4.474,7.63-8.996
			c0-0.112-0.005-0.242-0.012-0.383c7.698-2.031,15.88-3.07,24.345-3.07c12.476,0,24.376,2.3,34.384,6.425v6.547h-3.996
			c-0.828,0-1.5,0.671-1.5,1.5s0.672,1.5,1.5,1.5h10.991c0.828,0,1.5-0.671,1.5-1.5s-0.672-1.5-1.5-1.5h-3.995v-5.228
			c5.233,2.45,9.86,5.426,13.662,8.869v19.175h-106.6V172.912z M64.47,148.488c-0.828,0-1.5,0.671-1.5,1.5v10.89
			c-2.656-0.672-4.63-3.075-4.63-5.937c0-6.547,4.305-16.036,6.13-16.036s6.13,9.488,6.13,16.036c0,2.862-1.974,5.265-4.63,5.937
			v-10.89C65.97,149.159,65.298,148.488,64.47,148.488z M133.816,134.388c-0.828,0-1.5,0.671-1.5,1.5v13.326
			c-3.464-0.698-6.081-3.764-6.081-7.431c0-2.274,0.962-7.313,2.572-11.811c1.869-5.223,3.862-7.56,5.009-7.56
			s3.14,2.337,5.009,7.56c1.61,4.498,2.572,9.537,2.572,11.811c0,3.667-2.617,6.733-6.081,7.431v-13.326
			C135.316,135.06,134.645,134.388,133.816,134.388z M128,9.921c25.233,0,45.762,20.528,45.762,45.761S153.233,101.443,128,101.443
			S82.238,80.915,82.238,55.682S102.767,9.921,128,9.921z M19.87,205.495V81.718c0-6.708,5.457-12.165,12.164-12.165H81.26
			c0.55,1.851,1.203,3.657,1.961,5.409H32.059c-3.738,0-6.779,3.042-6.779,6.78V205.47c0,3.738,3.041,6.78,6.779,6.78h191.883
			c3.738,0,6.779-3.042,6.779-6.78V81.742c0-3.738-3.041-6.78-6.779-6.78H172.78c0.757-1.752,1.41-3.558,1.961-5.409h49.225
			c6.707,0,12.164,5.457,12.164,12.165v123.776c0,6.708-5.457,12.165-12.164,12.165h-50.408H82.442H32.034
			C25.327,217.659,19.87,212.202,19.87,205.495z M170.478,220.659l-2.32,2.963c-1.374,1.754-3.441,2.76-5.67,2.76H93.513
			c-2.229,0-4.296-1.006-5.67-2.76l-2.32-2.963H170.478z M228.385,235.106H27.615c-4.787,0-9.22-2.157-12.18-5.724h29.141
			c0.828,0,1.5-0.671,1.5-1.5s-0.672-1.5-1.5-1.5H13.478c-0.132-0.263-0.264-0.525-0.382-0.797l-2.142-4.926h21.08h49.678
			l3.769,4.813c1.946,2.485,4.874,3.911,8.031,3.911h68.975c3.157,0,6.085-1.425,8.031-3.911l3.769-4.813h49.678h21.08l-2.142,4.926
			c-0.118,0.272-0.25,0.535-0.382,0.798h-31.098c-0.828,0-1.5,0.671-1.5,1.5s0.672,1.5,1.5,1.5h29.141
			C237.605,232.95,233.172,235.106,228.385,235.106z"/>
		<path fill="#3F3679" d="M65.22,226.383H54.845c-0.828,0-1.5,0.671-1.5,1.5s0.672,1.5,1.5,1.5H65.22c0.828,0,1.5-0.671,1.5-1.5
			S66.048,226.383,65.22,226.383z"/>
		<path fill="#3F3679" d="M201.155,226.383H190.78c-0.828,0-1.5,0.671-1.5,1.5s0.672,1.5,1.5,1.5h10.375c0.828,0,1.5-0.671,1.5-1.5
			S201.983,226.383,201.155,226.383z"/>
		<path fill="#3F3679" d="M27.323,246.079H9.32c-0.828,0-1.5,0.671-1.5,1.5s0.672,1.5,1.5,1.5h18.003c0.828,0,1.5-0.671,1.5-1.5
			S28.151,246.079,27.323,246.079z"/>
		<path fill="#3F3679" d="M246.68,246.079h-18.003c-0.828,0-1.5,0.671-1.5,1.5s0.672,1.5,1.5,1.5h18.003c0.828,0,1.5-0.671,1.5-1.5
			S247.508,246.079,246.68,246.079z"/>
		<path fill="#3F3679" d="M218.479,246.079H37.521c-0.828,0-1.5,0.671-1.5,1.5s0.672,1.5,1.5,1.5h180.959c0.828,0,1.5-0.671,1.5-1.5
			S219.308,246.079,218.479,246.079z"/>
		<path fill="#3F3679" d="M95.679,114.437c-6.26,0-11.353,5.093-11.353,11.353s5.093,11.352,11.353,11.352
			s11.353-5.092,11.353-11.352S101.938,114.437,95.679,114.437z M95.679,134.142c-4.605,0-8.353-3.747-8.353-8.352
			s3.747-8.353,8.353-8.353s8.353,3.747,8.353,8.353S100.284,134.142,95.679,134.142z"/>
		<path fill="#3F3679" d="M95.679,113.077c0.828,0,1.5-0.671,1.5-1.5v-3.882c0-0.829-0.672-1.5-1.5-1.5s-1.5,0.671-1.5,1.5v3.882
			C94.179,112.405,94.851,113.077,95.679,113.077z"/>
		<path fill="#3F3679" d="M95.679,138.502c-0.828,0-1.5,0.671-1.5,1.5v3.882c0,0.829,0.672,1.5,1.5,1.5s1.5-0.671,1.5-1.5v-3.882
			C97.179,139.173,96.507,138.502,95.679,138.502z"/>
		<path fill="#3F3679" d="M105.729,117.24c0.384,0,0.768-0.146,1.061-0.439l2.745-2.745c0.586-0.585,0.586-1.536,0-2.121
			c-0.586-0.586-1.535-0.586-2.121,0l-2.745,2.745c-0.586,0.585-0.586,1.536,0,2.121C104.961,117.093,105.345,117.24,105.729,117.24
			z"/>
		<path fill="#3F3679" d="M84.568,134.779l-2.745,2.745c-0.586,0.585-0.586,1.535,0,2.121c0.293,0.293,0.677,0.439,1.061,0.439
			s0.768-0.146,1.061-0.439l2.745-2.745c0.586-0.585,0.586-1.535,0-2.121S85.154,134.193,84.568,134.779z"/>
		<path fill="#3F3679" d="M113.773,124.29h-3.882c-0.828,0-1.5,0.671-1.5,1.5s0.672,1.5,1.5,1.5h3.882c0.828,0,1.5-0.671,1.5-1.5
			S114.602,124.29,113.773,124.29z"/>
		<path fill="#3F3679" d="M82.966,125.79c0-0.829-0.672-1.5-1.5-1.5h-3.882c-0.828,0-1.5,0.671-1.5,1.5s0.672,1.5,1.5,1.5h3.882
			C82.294,127.29,82.966,126.618,82.966,125.79z"/>
		<path fill="#3F3679" d="M106.789,134.779c-0.586-0.586-1.535-0.586-2.121,0s-0.586,1.536,0,2.121l2.745,2.745
			c0.293,0.293,0.677,0.439,1.061,0.439s0.768-0.146,1.061-0.439c0.586-0.586,0.586-1.536,0-2.121L106.789,134.779z"/>
		<path fill="#3F3679" d="M84.568,116.8c0.293,0.293,0.677,0.439,1.061,0.439s0.768-0.146,1.061-0.439
			c0.586-0.585,0.586-1.536,0-2.121l-2.745-2.745c-0.586-0.586-1.535-0.586-2.121,0c-0.586,0.585-0.586,1.536,0,2.121L84.568,116.8z
			"/>
		<path fill="#3F3679" d="M166.806,101.821h48.315c0.828,0,1.5-0.671,1.5-1.5s-0.672-1.5-1.5-1.5h-48.315
			c-0.828,0-1.5,0.671-1.5,1.5S165.978,101.821,166.806,101.821z"/>
		<path fill="#3F3679" d="M166.806,119.512h48.315c0.828,0,1.5-0.671,1.5-1.5s-0.672-1.5-1.5-1.5h-48.315
			c-0.828,0-1.5,0.671-1.5,1.5S165.978,119.512,166.806,119.512z"/>
		<path fill="#3F3679" d="M166.806,137.203h48.315c0.828,0,1.5-0.671,1.5-1.5s-0.672-1.5-1.5-1.5h-48.315
			c-0.828,0-1.5,0.671-1.5,1.5S165.978,137.203,166.806,137.203z"/>
		<path fill="#3F3679" d="M166.806,154.894h48.315c0.828,0,1.5-0.671,1.5-1.5s-0.672-1.5-1.5-1.5h-48.315
			c-0.828,0-1.5,0.671-1.5,1.5S165.978,154.894,166.806,154.894z"/>
		<path fill="#3F3679" d="M166.806,172.585h48.315c0.828,0,1.5-0.671,1.5-1.5s-0.672-1.5-1.5-1.5h-48.315
			c-0.828,0-1.5,0.671-1.5,1.5S165.978,172.585,166.806,172.585z"/>
		<path fill="#3F3679" d="M166.806,190.276h48.315c0.828,0,1.5-0.671,1.5-1.5s-0.672-1.5-1.5-1.5h-48.315
			c-0.828,0-1.5,0.671-1.5,1.5S165.978,190.276,166.806,190.276z"/>
	</g>
	<g>
		<path fill="#3F3679" d="M152.563,55.653V72.51c0,1.314-0.492,2.453-1.477,3.418c-0.985,0.966-2.154,1.449-3.505,1.449h-14.83
			v11.876c0,1.352-0.483,2.501-1.448,3.447c-0.966,0.947-2.106,1.419-3.419,1.419c-1.389,0-2.568-0.472-3.533-1.419
			c-0.966-0.947-1.449-2.095-1.449-3.447V77.261h-14.714c-1.314,0-2.453-0.472-3.418-1.419c-0.966-0.947-1.449-2.095-1.449-3.447
			c0-1.351,0.472-2.501,1.419-3.447c0.947-0.946,2.095-1.419,3.447-1.419h34.41v-7.009h-34.295c-1.352,0-2.501-0.464-3.446-1.39
			c-0.948-0.927-1.42-2.086-1.42-3.476V38.853c0-1.352,0.472-2.501,1.42-3.447c0.946-0.946,2.094-1.419,3.446-1.419h14.598V22.112
			c0-1.313,0.454-2.453,1.362-3.419c0.907-0.965,2.133-1.448,3.679-1.448c1.313,0,2.442,0.473,3.389,1.419
			c0.946,0.947,1.419,2.095,1.419,3.447v11.876h14.946c1.351,0,2.52,0.483,3.505,1.448c0.985,0.966,1.477,2.106,1.477,3.419
			c0,1.352-0.492,2.52-1.477,3.505c-0.985,0.985-2.154,1.477-3.505,1.477h-34.41v6.951h34.295c1.351,0,2.52,0.484,3.505,1.449
			C152.07,53.201,152.563,54.34,152.563,55.653z"/>
	</g>
</g>
</svg>
